<svg width="39" height="39" viewBox="0 0 39 39" fill="none" xmlns="http://www.w3.org/2000/svg">
<path d="M19.5 13.6667V25.3333M25.3333 19.5H13.6667M37 19.5C37 21.7981 36.5474 24.0738 35.6679 26.197C34.7884 28.3202 33.4994 30.2493 31.8744 31.8744C30.2493 33.4994 28.3202 34.7884 26.197 35.6679C24.0738 36.5474 21.7981 37 19.5 37C17.2019 37 14.9262 36.5474 12.803 35.6679C10.6798 34.7884 8.75066 33.4994 7.12563 31.8744C5.50061 30.2493 4.21157 28.3202 3.33211 26.197C2.45265 24.0738 2 21.7981 2 19.5C2 14.8587 3.84374 10.4075 7.12563 7.12563C10.4075 3.84374 14.8587 2 19.5 2C24.1413 2 28.5925 3.84374 31.8744 7.12563C35.1563 10.4075 37 14.8587 37 19.5Z" stroke="#00D665" stroke-width="3" stroke-linecap="round" stroke-linejoin="round"/>
</svg>
